<?xml version="1.0" standalone="no"?>
<!DOCTYPE svg PUBLIC "-//W3C//DTD SVG 20010904//EN"
 "http://www.w3.org/TR/2001/REC-SVG-20010904/DTD/svg10.dtd">
<svg version="1.0" xmlns="http://www.w3.org/2000/svg"
 width="300.000000pt" height="229.000000pt" viewBox="0 0 300.000000 229.000000"
 preserveAspectRatio="xMidYMid meet">
<metadata>
Created by potrace 1.10, written by Peter Selinger 2001-2011
</metadata>
<g transform="translate(0.000000,229.000000) scale(0.100000,-0.100000)"
fill="#000000" stroke="none">
<path d="M396 2188 c-8 -13 -18 -51 -22 -85 -7 -63 -7 -63 -39 -63 -64 0 -65
-6 -65 -306 l0 -269 -84 -498 c-96 -575 -97 -530 17 -549 l67 -11 0 -78 c0
-67 3 -80 19 -89 13 -6 196 -10 528 -10 l508 1 647 -108 c487 -81 652 -105
665 -97 20 13 28 36 43 132 l12 72 68 0 c49 0 73 4 84 16 14 14 16 73 16 507
l0 492 42 258 c46 279 46 288 -8 297 l-29 5 -3 100 c-2 74 -7 104 -19 117 -15
17 -56 18 -700 18 l-684 0 -509 85 c-280 47 -516 85 -524 85 -9 0 -22 -10 -30
-22z m499 -72 l440 -74 -478 -1 c-451 -1 -478 0 -473 17 3 9 8 35 11 57 11 67
15 75 38 75 12 0 220 -34 462 -74z m1940 -981 l0 -880 -1270 0 -1270 0 -3 870
c-1 479 0 876 3 883 3 10 263 12 1272 10 l1268 -3 0 -880z m66 645 c25 -14 24
-31 -10 -235 l-29 -170 -1 208 c-1 214 0 218 40 197z m-2631 -898 l0 -459 -66
13 c-63 11 -88 27 -80 49 1 6 34 200 72 432 38 233 70 423 72 423 1 0 2 -206
2 -458z m2400 -659 c-1 -28 -29 -175 -34 -180 -8 -9 -127 9 -711 107 l-470 78
608 1 c334 1 607 -2 607 -6z"/>
<path d="M356 1924 c-3 -9 -6 -293 -6 -633 0 -478 3 -621 13 -634 11 -16 92
-17 1207 -15 l1195 3 3 648 2 647 -1204 0 c-1089 0 -1204 -2 -1210 -16z m2392
-9 c1 -3 2 -286 2 -630 l0 -625 -1187 2 -1188 3 -3 620 c-1 341 0 625 2 630 4
10 2368 10 2374 0z"/>
<path d="M420 1819 c0 -34 4 -48 11 -43 7 4 9 21 6 40 -6 34 -5 34 33 34 21 0
42 5 45 10 4 6 -13 10 -44 10 l-51 0 0 -51z"/>
<path d="M2610 1860 c0 -5 18 -10 40 -10 40 0 40 0 40 -40 0 -22 5 -40 10 -40
6 0 10 23 10 50 l0 50 -50 0 c-27 0 -50 -4 -50 -10z"/>
<path d="M420 771 l0 -51 35 -1 c19 -1 40 -2 45 -3 6 -1 10 4 10 9 0 6 -17 10
-38 10 -36 0 -37 0 -34 36 2 21 -1 40 -7 44 -7 4 -11 -11 -11 -44z"/>
<path d="M2698 814 c-5 -4 -8 -25 -8 -46 0 -39 0 -39 -35 -37 -19 2 -35 -1
-35 -6 1 -9 79 -8 88 0 2 2 2 24 0 50 -2 26 -6 43 -10 39z"/>
<path d="M416 593 c-17 -18 -4 -63 25 -88 l32 -26 33 32 c36 34 43 60 22 77
-14 11 -102 15 -112 5z m104 -31 c0 -19 -29 -52 -46 -52 -16 0 -56 49 -49 60
3 5 25 8 50 8 34 0 45 -3 45 -16z"/>
<path d="M617 594 c-12 -13 -8 -92 6 -96 6 -2 40 -2 75 0 l63 4 -3 46 -3 47
-65 3 c-36 2 -69 0 -73 -4z m123 -44 c0 -29 -2 -30 -45 -30 -25 0 -48 -1 -52
-2 -5 -2 -9 12 -11 30 l-3 32 55 0 c56 0 56 0 56 -30z"/>
<path d="M895 583 c-4 -13 -12 -23 -18 -23 -6 0 -4 -7 4 -15 9 -9 23 -13 32
-9 18 7 23 24 8 24 -5 0 -12 10 -14 23 l-4 22 -8 -22z"/>
<path d="M830 531 l0 -31 70 0 c74 0 91 11 74 48 -7 15 -8 14 -11 -5 -4 -21
-10 -23 -59 -23 -40 0 -54 4 -54 14 0 8 -4 18 -10 21 -6 4 -10 -7 -10 -24z"/>
</g>
</svg>
